<?xml version="1.0" encoding="UTF-8"?>
<svg version="1.1" xmlns="http://www.w3.org/2000/svg" width="180" height="180">
<path d="M0 0 C1.42913802 -0.01141381 2.85823711 -0.03169346 4.28710938 -0.06152344 C14.45903958 -0.27338933 23.09000956 0.8665069 32.79541016 4.29516602 C33.52985352 4.55209229 34.26429687 4.80901855 35.02099609 5.07373047 C47.98296629 9.91270349 59.29983355 17.24858883 68.79541016 27.29516602 C68.79541016 27.95516602 68.79541016 28.61516602 68.79541016 29.29516602 C69.38837891 29.54008789 69.98134766 29.78500977 70.59228516 30.03735352 C81.41621869 36.21697514 87.86902139 56.19205235 91.10400391 67.62329102 C91.33216797 68.50500977 91.56033203 69.38672852 91.79541016 70.29516602 C91.97048096 70.86654297 92.14555176 71.43791992 92.32592773 72.02661133 C93.3768916 77.10490369 93.02170003 82.43621052 93.03564453 87.60961914 C93.04525489 89.76041784 93.07625502 91.91022021 93.10791016 94.06079102 C93.19824362 105.58205729 91.33405996 115.83358192 86.54541016 126.35766602 C86.24022461 127.03539063 85.93503906 127.71311523 85.62060547 128.41137695 C75.08897785 151.23892336 56.30685992 167.79379643 32.92041016 176.67016602 C23.63418028 179.94946172 14.87509757 180.6413435 5.10375977 180.61083984 C2.99719047 180.60768739 0.89204046 180.63118102 -1.21435547 180.65649414 C-12.62759557 180.71166337 -22.84467096 178.78312224 -33.26708984 174.04516602 C-33.94046387 173.74433105 -34.61383789 173.44349609 -35.30761719 173.13354492 C-43.60673496 169.3270637 -51.54774815 164.59217843 -58.20458984 158.29516602 C-58.20458984 157.63516602 -58.20458984 156.97516602 -58.20458984 156.29516602 C-58.78724609 156.04379883 -59.36990234 155.79243164 -59.97021484 155.53344727 C-72.92431937 148.35433689 -80.71961166 129.14425359 -85.02270508 115.74829102 C-87.22287261 108.00558211 -87.70087501 100.49327066 -87.65063477 92.48706055 C-87.64212465 90.42858584 -87.67100601 88.37290032 -87.70263672 86.31469727 C-87.75141205 77.12977492 -86.2492186 69.00058045 -83.20458984 60.29516602 C-82.94782471 59.56007812 -82.69105957 58.82499023 -82.42651367 58.06762695 C-78.50874417 47.59206635 -72.92456697 37.45628469 -65.20458984 29.29516602 C-64.54458984 29.29516602 -63.88458984 29.29516602 -63.20458984 29.29516602 C-62.93646484 28.65579102 -62.66833984 28.01641602 -62.39208984 27.35766602 C-61.20458984 25.29516602 -61.20458984 25.29516602 -58.20458984 24.29516602 C-57.89779297 23.68157227 -57.59099609 23.06797852 -57.27490234 22.43579102 C-52.7749349 13.43585613 -35.66284158 7.1011678 -26.42724609 3.93579102 C-23.36567349 2.98529153 -20.30772529 2.09817036 -17.20458984 1.29516602 C-16.6317627 1.12082031 -16.05893555 0.94647461 -15.46875 0.7668457 C-10.42446062 -0.28400259 -5.13952975 0.0284433 0 0 Z " fill="#000000" transform="translate(87.20458984375,-0.295166015625)"/>
<path d="M0 0 C8.06652174 -0.02312737 16.13302972 -0.04091709 24.19957638 -0.05181217 C27.94483037 -0.05704014 31.69006176 -0.06413622 35.43530273 -0.07543945 C39.04681687 -0.08627141 42.65830921 -0.09227749 46.26983833 -0.09487724 C47.65060329 -0.09673094 49.031367 -0.10035049 50.41212273 -0.10573006 C52.33975952 -0.11294447 54.26741807 -0.11340809 56.19506836 -0.11352539 C57.29427109 -0.115746 58.39347382 -0.11796661 59.52598572 -0.12025452 C62 0 62 0 63 1 C63.125 3.5 63.125 3.5 63 6 C60.66504532 8.33495468 54.03884436 7.41008043 50.70117188 7.51757812 C49.50911133 7.56881836 49.50911133 7.56881836 48.29296875 7.62109375 C47.5661792 7.6461499 46.83938965 7.67120605 46.09057617 7.69702148 C43.66887507 8.04798856 42.05268975 8.66850292 40 10 C38.86639203 13.4008239 38.86609016 16.00887419 38.85473633 19.59521484 C38.85137772 20.26061783 38.8480191 20.92602081 38.84455872 21.61158752 C38.83505968 23.81138984 38.83310608 26.01111595 38.83203125 28.2109375 C38.82881775 29.74166902 38.8254536 31.27240023 38.82194519 32.8031311 C38.81595641 36.01264152 38.81410501 39.22212502 38.81469727 42.43164062 C38.81479883 46.53960878 38.8011515 50.64740388 38.78392506 54.75533104 C38.77279325 57.91751901 38.77077843 61.07966532 38.77130699 64.24187088 C38.77012847 65.75609559 38.76571386 67.27032143 38.75797462 68.78452682 C38.74815156 70.90513896 38.75106181 73.02537764 38.75708008 75.14599609 C38.75565506 76.35162201 38.75423004 77.55724792 38.75276184 78.79940796 C38.99882853 81.98483491 39.5335907 84.17436868 41 87 C45.09609303 89.47741433 49.64666213 89.42485682 54.3125 89.625 C55.05306641 89.66367188 55.79363281 89.70234375 56.55664062 89.7421875 C58.37071309 89.83581705 60.18532116 89.91896851 62 90 C62.38218767 91.65614657 62.71395102 93.32457024 63 95 C62 96 62 96 59.52598572 96.12025452 C58.42678299 96.11803391 57.32758026 96.11581329 56.19506836 96.11352539 C54.33325172 96.11341209 54.33325172 96.11341209 52.43382263 96.11329651 C51.0691626 96.10818911 49.70450298 96.1029731 48.33984375 96.09765625 C46.95121817 96.095792 45.56259193 96.09436813 44.17396545 96.09336853 C40.51278885 96.08954387 36.8516517 96.07971403 33.19049072 96.06866455 C29.45707737 96.05844932 25.72365766 96.05387067 21.99023438 96.04882812 C14.66013823 96.03809171 7.33007464 96.02101591 0 96 C0 94.02 0 92.04 0 90 C1.62808594 89.94392578 1.62808594 89.94392578 3.2890625 89.88671875 C4.73440739 89.82102125 6.17971839 89.75457524 7.625 89.6875 C8.33785156 89.66494141 9.05070312 89.64238281 9.78515625 89.61914062 C14.47437032 89.38252891 17.99942887 88.68961475 22 86 C23.32442293 82.55534489 23.12694853 79.01674862 23.12939453 75.3671875 C23.13114685 74.70978577 23.13289917 74.05238403 23.13470459 73.37506104 C23.13909525 71.20834694 23.13619494 69.04171489 23.1328125 66.875 C23.13348634 65.3657225 23.13445704 63.8564451 23.13571167 62.34716797 C23.13718487 59.18651291 23.13504622 56.02588614 23.13037109 52.86523438 C23.12467403 48.816658 23.12795505 44.76814792 23.13394356 40.71957397 C23.13755936 37.6037547 23.13640589 34.4879511 23.13381577 31.37213135 C23.13314932 29.8794148 23.13396506 28.38669681 23.13629532 26.89398193 C23.13883854 24.80688716 23.13495771 22.71989933 23.12939453 20.6328125 C23.12859894 19.44574707 23.12780334 18.25868164 23.12698364 17.03564453 C23.01991917 14.4761835 22.88976287 12.39298247 22 10 C17.76527816 7.45094414 12.99781947 7.56854177 8.1875 7.375 C7.39923828 7.33632813 6.61097656 7.29765625 5.79882812 7.2578125 C3.8662462 7.16411156 1.93315624 7.08099221 0 7 C0 4.69 0 2.38 0 0 Z " fill="#F9F9F9" transform="translate(59,42)"/>
</svg>
